<?xml version="1.0" standalone="no"?>
<!DOCTYPE svg PUBLIC "-//W3C//DTD SVG 20010904//EN"
 "http://www.w3.org/TR/2001/REC-SVG-20010904/DTD/svg10.dtd">
<svg version="1.0" xmlns="http://www.w3.org/2000/svg"
 width="512.000000pt" height="512.000000pt" viewBox="0 0 512.000000 512.000000"
 preserveAspectRatio="xMidYMid meet">
<metadata>
Created by potrace 1.15, written by Peter Selinger 2001-2017
</metadata>
<g transform="translate(0.000000,512.000000) scale(0.100000,-0.100000)"
fill="#000000" stroke="none">
<path d="M3636 3918 c-5 -40 -77 -1175 -76 -1208 0 -12 40 -28 146 -59 80 -24
147 -41 150 -39 2 3 -2 151 -10 329 -7 178 -12 326 -10 327 1 2 25 -9 52 -24
41 -23 52 -35 62 -68 36 -128 204 -643 212 -651 5 -5 68 -31 141 -56 150 -53
172 -71 150 -130 -15 -39 -139 -267 -162 -298 -18 -24 -22 -25 -916 -261 -816
-216 -990 -262 -991 -263 0 -1 -28 -42 -62 -91 -64 -92 -76 -122 -44 -112 9 3
249 56 532 117 283 61 733 158 1000 215 267 58 551 120 632 137 l148 32 36
110 c101 305 181 506 306 773 50 106 88 195 85 198 -10 10 -241 73 -249 68 -4
-3 -41 -69 -82 -147 -42 -78 -80 -148 -84 -155 -7 -10 -34 -2 -118 33 -60 25
-114 51 -121 58 -6 7 -52 104 -101 216 l-90 205 35 51 34 52 -46 184 c-25 101
-50 201 -56 221 -9 36 -15 40 -243 157 -128 67 -238 121 -244 121 -6 0 -13
-19 -16 -42z m328 -365 c4 -26 9 -59 11 -73 3 -14 -2 -33 -10 -44 -13 -17 -16
-16 -74 19 l-61 38 0 73 c0 40 -3 80 -6 89 -5 12 11 8 63 -19 70 -35 71 -35
77 -83z"/>
<path d="M103 3732 c-29 -14 -53 -30 -53 -35 0 -5 76 -165 169 -355 92 -191
219 -471 281 -622 62 -151 139 -340 172 -420 33 -80 89 -228 123 -330 35 -102
118 -342 185 -535 67 -192 124 -358 127 -367 3 -10 9 -18 13 -18 4 0 53 134
109 298 l102 299 -45 284 c-25 156 -50 305 -55 332 l-8 47 28 0 c39 0 1456
-117 1643 -135 81 -8 152 -12 157 -9 8 4 -108 242 -127 263 -3 3 -169 25
-1170 152 l-580 74 -25 156 c-21 134 -22 155 -9 152 14 -3 317 -60 1294 -243
236 -44 431 -78 434 -76 4 5 -45 257 -51 262 -4 3 -330 102 -567 173 -566 167
-823 249 -1250 396 -562 193 -833 285 -840 284 -3 0 -29 -12 -57 -27z"/>
<path d="M3026 3743 c-11 -38 -166 -795 -166 -813 0 -14 11 -22 43 -30 23 -7
68 -19 100 -28 31 -8 59 -13 62 -10 3 3 19 101 35 218 17 118 33 216 36 219 5
5 74 -29 106 -52 12 -10 24 -67 48 -237 18 -124 38 -230 44 -236 15 -15 206
-78 213 -70 3 3 -13 113 -36 243 -37 216 -40 239 -25 248 75 46 79 50 86 100
6 43 -4 192 -14 199 -1 1 -34 27 -73 58 -103 81 -197 132 -318 172 -123 41
-134 43 -141 19z m219 -219 c17 -3 58 -24 93 -46 56 -37 62 -44 62 -74 0 -27
-5 -37 -24 -46 -21 -9 -32 -6 -73 17 -66 39 -123 103 -123 138 0 22 4 27 18
23 9 -3 31 -8 47 -12z"/>
<path d="M2313 3572 c-69 -64 -313 -366 -313 -387 0 -5 116 -46 258 -89 141
-44 330 -102 419 -129 90 -28 165 -48 168 -45 3 3 8 34 11 69 l6 64 -248 79
c-137 43 -250 79 -252 81 -2 2 18 66 23 73 1 1 106 -34 234 -78 128 -44 241
-80 252 -80 11 0 19 7 19 18 0 9 3 33 6 53 6 35 5 35 -37 48 -24 7 -128 43
-231 79 l-187 65 19 28 c38 53 73 48 275 -35 134 -56 182 -72 187 -62 4 7 8
37 10 66 l3 53 -210 98 c-197 92 -214 98 -275 98 l-65 0 -72 -67z"/>
</g>
</svg>
